<?xml version="1.0" standalone="no"?>
<!DOCTYPE svg PUBLIC "-//W3C//DTD SVG 20010904//EN"
 "http://www.w3.org/TR/2001/REC-SVG-20010904/DTD/svg10.dtd">
<svg version="1.0" xmlns="http://www.w3.org/2000/svg"
 width="1411.000000pt" height="2292.000000pt" viewBox="0 0 1411.000000 2292.000000"
 preserveAspectRatio="xMidYMid meet">
<metadata>
Created by potrace 1.16, written by Peter Selinger 2001-2019
</metadata>
<g transform="translate(0.000000,2292.000000) scale(0.100000,-0.100000)"
fill="#000000" stroke="none">
<path d="M3325 19029 c-10 -15 3 -25 16 -12 7 7 7 13 1 17 -6 3 -14 1 -17 -5z"/>
<path d="M6437 15292 c-9 -10 -20 -34 -23 -53 -4 -19 -17 -76 -30 -127 -14
-51 -29 -121 -34 -155 -12 -72 -24 -136 -38 -192 -6 -22 -13 -76 -16 -121 -3
-44 -10 -93 -15 -110 -23 -72 -29 -364 -11 -482 19 -116 64 -166 149 -165 36
0 64 9 103 31 56 33 168 134 168 152 0 16 -37 3 -90 -31 -87 -56 -168 -92
-194 -85 -63 16 -86 234 -53 506 2 19 8 82 12 140 4 58 11 110 15 115 8 11 23
83 45 215 7 47 23 126 34 175 28 118 32 198 10 203 -8 1 -23 -6 -32 -16z"/>
<path d="M4453 15245 c-3 -9 0 -42 7 -74 16 -76 9 -336 -19 -696 -12 -148 -26
-331 -32 -405 -5 -74 -7 -180 -4 -235 7 -96 26 -213 40 -234 10 -17 29 -13 43
9 10 16 9 27 -3 56 -36 87 -39 272 -10 669 8 116 20 275 25 355 19 254 12 516
-13 558 -11 17 -26 15 -34 -3z"/>
<path d="M3717 15244 c-4 -4 -7 -59 -7 -123 0 -64 -9 -224 -19 -356 -36 -443
-54 -982 -35 -1052 9 -33 33 -28 49 10 12 28 11 34 -2 49 -13 15 -15 50 -11
247 2 127 7 233 10 236 7 7 263 119 348 152 107 41 272 93 297 93 33 0 83 27
83 45 0 20 -30 34 -65 29 -183 -28 -297 -66 -528 -176 -70 -33 -130 -58 -133
-55 -7 7 12 317 28 462 16 139 17 437 2 442 -5 2 -13 0 -17 -3z"/>
<path d="M5799 15200 c-14 -8 -17 -28 -17 -105 0 -52 -7 -141 -16 -197 -40
-280 -44 -329 -46 -568 -2 -173 4 -282 15 -300 6 -8 17 -35 25 -59 18 -54 53
-82 111 -88 40 -5 47 -2 83 34 62 62 138 185 123 199 -2 3 -31 -23 -63 -58
-33 -34 -71 -75 -86 -90 -14 -15 -35 -28 -45 -28 -26 0 -60 73 -73 157 -23
142 -3 661 32 833 8 36 13 112 13 170 0 97 -1 105 -20 107 -11 2 -27 -2 -36
-7z"/>
<path d="M7380 15011 c-74 -7 -122 -34 -203 -114 -35 -35 -47 -53 -42 -65 4
-9 7 -32 6 -49 -1 -18 2 -33 7 -33 14 0 32 23 32 42 0 23 81 103 129 127 34
18 92 25 172 22 57 -2 122 -51 148 -112 35 -86 29 -152 -24 -262 -77 -159
-114 -214 -207 -303 -95 -91 -119 -106 -170 -102 -36 3 -45 8 -63 38 -30 52
-26 186 9 310 26 89 70 194 98 233 10 12 10 22 2 35 -34 54 -97 -6 -134 -128
-12 -41 -28 -95 -36 -120 -21 -73 -34 -190 -29 -263 4 -59 9 -73 39 -110 74
-90 197 -85 294 12 129 129 235 280 283 405 11 28 27 65 36 82 19 38 14 96
-16 174 -21 56 -75 125 -91 115 -5 -3 -11 -1 -15 5 -10 16 -96 57 -130 62 -16
3 -59 2 -95 -1z"/>
<path d="M5132 14728 c-89 -51 -160 -150 -228 -317 -31 -77 -34 -92 -34 -189
0 -57 5 -134 12 -170 10 -56 18 -71 58 -112 63 -64 125 -85 234 -77 87 6 185
40 240 82 31 24 81 84 74 90 -1 2 -21 -6 -43 -17 -140 -71 -153 -76 -227 -83
-105 -10 -172 10 -225 68 -34 37 -41 53 -51 115 -12 73 -8 146 11 170 5 6 25
12 44 12 50 0 165 73 229 145 80 89 103 179 64 255 -35 69 -75 76 -158 28z
m97 -64 c35 -77 -31 -199 -147 -272 -108 -68 -133 -50 -88 63 41 105 86 168
148 209 55 38 70 38 87 0z"/>
<path d="M10357 13317 c-3 -7 -6 -68 -6 -135 -1 -66 -10 -208 -21 -314 -49
-483 -49 -498 4 -498 28 0 38 12 42 49 2 14 7 60 13 101 5 47 5 82 -1 93 -6
11 -6 37 1 70 16 85 24 161 40 407 6 95 6 159 0 165 -5 5 -9 19 -9 32 0 16 -8
27 -26 33 -32 12 -31 13 -37 -3z"/>
<path d="M9266 13118 c-18 -140 -35 -222 -50 -247 -8 -12 -19 -77 -18 -106 1
-11 -5 -38 -12 -60 -7 -22 -21 -110 -30 -195 -9 -85 -21 -168 -26 -185 -5 -16
-12 -74 -15 -128 -3 -53 -9 -107 -14 -120 -4 -12 -9 -49 -10 -82 -1 -33 -6
-76 -11 -95 -4 -19 -11 -58 -15 -86 -7 -58 2 -72 57 -80 l33 -5 30 78 c32 85
98 163 165 194 70 33 85 39 105 38 11 0 39 3 63 7 33 5 47 3 61 -10 68 -61 -4
-241 -129 -326 -59 -40 -119 -70 -140 -70 -5 0 -10 14 -10 30 0 17 -5 30 -11
30 -12 0 -89 -60 -89 -70 0 -4 20 -21 45 -39 43 -31 46 -31 92 -20 55 14 134
54 146 75 4 8 20 14 34 14 31 0 40 12 139 165 26 42 43 153 29 196 -9 26 -23
40 -65 62 -51 27 -61 28 -141 24 -68 -4 -101 -12 -155 -37 -38 -17 -78 -39
-89 -49 -11 -10 -31 -22 -44 -26 -22 -7 -23 -5 -16 16 4 13 13 78 21 144 24
213 33 289 43 335 15 68 31 186 31 222 0 17 4 47 9 67 5 20 20 105 32 188 l23
153 -24 25 c-13 14 -27 25 -30 25 -4 0 -11 -24 -14 -52z"/>
<path d="M4395 12982 c-11 -8 -26 -30 -54 -83 -11 -19 -34 -51 -51 -69 -32
-35 -120 -198 -120 -224 0 -7 -7 -19 -15 -26 -8 -6 -24 -37 -35 -68 -11 -32
-25 -66 -30 -77 -5 -11 -14 -38 -19 -60 -12 -48 -34 -124 -54 -185 -42 -127
-68 -220 -73 -265 -6 -50 -32 -115 -46 -115 -5 0 -8 55 -9 123 0 170 -8 384
-15 435 -4 34 -11 45 -30 53 -14 5 -29 9 -33 9 -15 0 -69 -87 -86 -140 -10
-30 -26 -64 -37 -76 -20 -23 -68 -145 -68 -176 0 -11 -20 -67 -45 -125 -25
-58 -45 -111 -45 -118 0 -7 -9 -32 -19 -56 -11 -24 -31 -87 -45 -139 -14 -52
-37 -127 -50 -167 -34 -100 -43 -185 -22 -202 18 -15 38 -4 56 30 14 25 60
210 60 240 0 15 6 32 14 38 14 12 56 130 105 296 29 100 59 179 91 245 10 19
20 47 23 61 9 38 48 121 54 116 3 -3 9 -125 13 -270 11 -329 23 -372 98 -333
37 19 70 60 78 95 3 14 9 35 14 46 17 42 41 133 59 225 10 52 25 109 33 125 8
17 19 48 23 70 8 45 63 215 75 230 4 6 27 57 50 115 39 99 65 147 117 223 12
18 27 42 33 55 6 14 15 20 21 16 14 -8 6 -243 -12 -359 -5 -38 -14 -101 -19
-140 -4 -38 -25 -155 -44 -260 -46 -239 -66 -388 -66 -488 0 -97 9 -117 55
-117 39 0 38 -4 36 95 -1 69 7 136 29 245 6 30 13 73 14 95 2 22 15 102 30
178 14 77 24 143 21 148 -4 5 -1 35 5 66 6 32 13 87 16 122 3 35 10 74 16 85
17 31 18 332 2 354 -8 9 -14 27 -14 39 0 19 -23 41 -65 66 -6 3 -15 3 -20 -1z"/>
<path d="M7836 12918 c-3 -13 -8 -99 -11 -193 -3 -93 -10 -199 -15 -235 -18
-124 -41 -573 -34 -675 7 -107 14 -130 47 -157 21 -16 22 -15 34 14 18 42 16
75 -4 86 -14 8 -17 29 -18 128 -2 147 20 600 39 794 16 166 10 253 -16 258
-11 2 -19 -5 -22 -20z"/>
<path d="M5702 12778 c-7 -35 -17 -103 -22 -153 -6 -49 -15 -105 -20 -124 -5
-19 -7 -37 -5 -40 3 -2 1 -9 -4 -15 -5 -6 -16 -65 -25 -131 -20 -146 -20 -146
-40 -219 -9 -33 -15 -65 -12 -72 3 -7 -2 -47 -11 -91 -8 -43 -16 -96 -18 -118
-2 -22 -8 -89 -14 -148 -7 -59 -9 -112 -6 -117 3 -6 24 -10 45 -10 37 0 39 2
46 36 3 19 4 53 1 74 -3 22 -1 40 3 42 8 3 12 31 26 188 3 36 9 76 14 90 5 14
11 37 14 52 4 18 21 37 47 54 62 39 65 38 90 -3 12 -21 33 -51 46 -66 12 -16
30 -54 39 -85 9 -31 31 -86 49 -122 18 -36 36 -76 40 -90 15 -49 51 -61 103
-34 36 18 41 34 12 41 -11 3 -24 20 -31 42 -11 33 -27 69 -110 247 -16 34 -47
81 -70 104 -38 39 -40 43 -28 71 7 18 25 35 45 44 18 7 40 24 49 38 9 14 34
37 55 52 22 15 42 35 45 44 3 10 23 31 45 47 42 31 50 54 25 74 -20 17 -68 4
-96 -26 -13 -14 -54 -48 -91 -76 -38 -27 -68 -53 -68 -58 0 -4 -19 -20 -42
-35 -24 -15 -59 -45 -79 -66 -45 -48 -61 -50 -52 -6 3 17 9 34 12 37 8 6 12
42 15 148 2 46 7 87 13 90 12 9 30 58 38 104 4 28 2 39 -11 46 -11 6 -13 12
-6 16 7 4 9 25 5 56 -4 34 -2 50 6 50 14 0 14 35 1 61 -6 10 -21 19 -34 19
-20 0 -24 -8 -34 -62z"/>
<path d="M6546 12440 c-39 -12 -95 -52 -102 -72 -3 -10 -9 -18 -14 -18 -12 0
-58 -49 -75 -80 -7 -14 -24 -59 -38 -100 -37 -110 -36 -226 4 -340 34 -95 80
-173 116 -197 29 -19 55 -24 150 -30 68 -4 75 -3 120 27 35 23 55 46 71 80 37
80 26 91 -35 37 -72 -64 -115 -87 -161 -87 -79 0 -131 42 -155 125 -19 69 -42
202 -39 231 3 29 7 32 44 38 54 9 109 54 154 126 20 32 42 61 50 64 8 3 14 10
14 16 0 6 11 28 25 50 34 54 32 73 -14 109 -40 32 -64 36 -115 21z m38 -79
c18 -29 -143 -251 -182 -251 -11 0 -13 8 -8 33 4 22 27 56 67 98 33 35 67 79
75 97 14 31 37 42 48 23z"/>
<path d="M5248 12352 c-18 -7 -72 -69 -101 -114 l-17 -27 -47 24 c-53 29 -77
31 -124 11 -35 -15 -63 -42 -91 -86 -8 -14 -36 -50 -62 -80 -25 -29 -46 -57
-46 -62 0 -4 -16 -43 -36 -85 -37 -80 -39 -89 -36 -160 3 -57 41 -103 88 -103
52 0 110 28 140 68 16 21 34 41 41 45 7 5 11 13 8 18 -4 5 19 34 49 64 31 30
56 57 56 61 0 3 16 32 35 64 19 32 35 69 35 84 0 14 5 26 10 26 22 0 20 -31
-5 -92 -15 -34 -30 -79 -35 -98 -8 -36 -23 -76 -77 -210 -63 -156 -74 -238
-37 -287 24 -31 50 -41 68 -23 8 8 7 15 -6 24 -15 11 -17 21 -9 59 4 26 14 54
21 62 7 8 10 21 6 30 -3 8 6 26 19 41 14 16 26 40 26 58 1 17 2 43 3 57 1 15
14 43 29 62 15 20 27 42 27 49 0 7 10 29 21 48 12 19 23 49 24 66 2 17 10 45
19 62 9 17 16 38 16 47 0 9 7 18 15 21 8 4 15 17 15 31 0 14 9 38 21 54 11 16
23 52 26 82 5 47 2 56 -22 85 -27 33 -37 36 -67 24z m-185 -183 c24 -29 23
-35 -25 -116 -122 -205 -211 -313 -260 -313 -27 0 -28 1 -21 48 7 48 45 145
68 172 7 8 15 27 19 42 3 15 33 58 66 96 33 39 60 78 60 87 0 15 6 17 38 12
20 -4 45 -16 55 -28z m154 -1 c-3 -8 -6 -5 -6 6 -1 11 2 17 5 13 3 -3 4 -12 1
-19z"/>
<path d="M8358 12330 c-27 -16 -48 -34 -48 -39 0 -5 -15 -24 -32 -42 -38 -40
-42 -46 -87 -130 -30 -56 -35 -74 -37 -151 -3 -81 -2 -89 22 -118 14 -16 31
-30 37 -30 6 0 18 -7 27 -15 15 -14 20 -14 46 0 16 8 34 15 39 15 15 0 85 70
85 85 0 6 9 20 19 29 11 10 23 32 26 48 5 19 19 37 40 50 19 10 40 32 47 48
13 29 43 46 54 29 3 -5 -5 -44 -16 -87 -17 -59 -22 -108 -23 -207 -2 -118 0
-133 20 -166 20 -32 58 -59 83 -59 15 0 12 38 -4 47 -21 13 -36 49 -36 87 0
52 20 172 40 246 42 149 48 242 20 314 -16 42 -53 34 -91 -19 -18 -25 -37 -44
-42 -42 -6 2 -16 24 -24 50 -24 83 -90 105 -165 57z m112 -70 c7 -17 22 -37
34 -46 15 -10 18 -18 11 -28 -6 -8 -30 -43 -54 -78 -103 -148 -137 -188 -177
-210 -61 -32 -73 -23 -67 54 3 35 12 77 21 93 24 47 97 147 136 184 20 19 36
41 36 48 0 7 11 13 24 13 17 0 27 -9 36 -30z"/>
<path d="M7410 12299 c-30 -11 -68 -24 -85 -28 -93 -26 -254 -120 -255 -150 0
-8 -17 -36 -37 -63 -43 -55 -40 -58 -67 57 -25 102 -69 152 -110 122 -15 -11
-15 -16 4 -55 12 -23 25 -66 30 -95 5 -29 14 -77 20 -107 13 -64 13 -186 -1
-232 -16 -56 -11 -143 9 -160 58 -52 88 -22 96 97 6 94 17 144 40 176 9 13 16
35 16 50 0 15 7 32 15 39 8 7 15 23 15 37 0 13 7 26 18 30 20 8 71 63 72 79 0
14 30 35 119 82 36 19 77 43 90 53 13 11 32 19 41 19 10 0 23 7 30 15 7 8 18
15 26 15 20 0 28 21 13 31 -20 13 -38 11 -99 -12z"/>
<path d="M10285 11900 c-18 -20 -22 -33 -27 -95 l-3 -30 69 2 c74 3 96 14 122
66 18 33 12 45 -32 63 -50 21 -107 18 -129 -6z"/>
<path d="M650 6450 c0 -5 7 -10 15 -10 8 0 15 5 15 10 0 6 -7 10 -15 10 -8 0
-15 -4 -15 -10z"/>
</g>
</svg>
